<svg data-v-fde0c5aa="" xmlns="http://www.w3.org/2000/svg" viewBox="0 0 300 300" class="icon"><!----><defs data-v-fde0c5aa=""><!----></defs><rect data-v-fde0c5aa="" fill="transparent" x="0" y="0" width="300px" height="300px" class="logo-background-square"></rect><!----><defs data-v-fde0c5aa=""><linearGradient data-v-fde0c5aa="" gradientTransform="rotate(25)" id="9dc27312-02bd-4324-814a-586fe05902a7" x1="0%" y1="0%" x2="100%" y2="0%"><stop data-v-fde0c5aa="" offset="0%" stop-color="#41E296" stop-opacity="1"></stop><stop data-v-fde0c5aa="" offset="100%" stop-color="#00C4EE" stop-opacity="1"></stop></linearGradient></defs><g data-v-fde0c5aa="" id="47d394a1-2de1-4e8f-bc2f-e2bc71db9d7c" fill="url(#9dc27312-02bd-4324-814a-586fe05902a7)" stroke="none" transform="matrix(2.883243200653683,0,0,2.883243200653683,5.836399137621932,5.8335669723838635)"><path d="M34.25 57.64c-.43.301-.83.63-1.31.851-.14.06-.25-.13-.12-.19.48-.229.89-.55 1.32-.859.11-.092.23.108.11.198zM34.4 56.79c-.79.18-1.5.55-2.13 1.06-.11.09-.27-.07-.16-.16.66-.53 1.4-.931 2.22-1.12.15-.03.21.19.07.22zM40.31 82.47c-1.36.09-2.07-.33-3.08-1.16-1.94-1.6-3.9-.14-6.07-.369-.14-.011-.14-.24 0-.23 1.61.18 3.48-1 5.03-.32 1.54.681 2.21 1.971 4.12 1.851.14-.012.14.218 0 .228zM45.08 56.8c.14-.05.19.17.06.22a3.13 3.13 0 0 1-2.01 0c-.14-.05-.08-.27.06-.22.63.21 1.26.21 1.89 0zM45.16 56.45c-.61 0-1.22-.05-1.83-.061-.14 0-.14-.22 0-.22.61 0 1.22.05 1.83.05.15.001.15.231 0 .231zM45.16 55.98c-.65-.381-1.42-.33-2.14-.221-.14.03-.2-.2-.06-.22.78-.12 1.61-.17 2.32.24.12.081.01.271-.12.201zM54.32 31.43c-1.07 0-2.13.01-3.2.15-.14.02-.14-.21 0-.23 1.07-.14 2.13-.15 3.2-.15.15 0 .15.23 0 .23zM54.32 32.95c-1.32.17-2.66.43-3.99.15-.14-.03-.08-.25.06-.22 1.31.28 2.629.01 3.93-.16.15-.02.15.21 0 .23zM54.68 22.73c-1.55.86-3.18.78-4.81.16-.13-.05-.07-.27.06-.22 1.57.59 3.14.69 4.64-.14.13-.07.24.13.11.2zM69.2 60.47c-.82 1.761-.69 3.511.74 4.891.109.1-.051.26-.16.159-1.511-1.46-1.65-3.31-.78-5.159.07-.141.26-.021.2.109zM37.19 56.45c-.14.04-.2-.181-.06-.22.55-.171 1.12-.181 1.69-.181.15 0 .15.23 0 .23-.55.001-1.1.011-1.63.171zM39.16 57.01c-.56.391-1.24.311-1.88.3-.15 0-.15-.229 0-.229.6.01 1.24.1 1.77-.271.12-.09.23.11.11.2z"></path><path d="M50 11.85c-21.07 0-38.15 17.08-38.15 38.15 0 13.34 6.85 25.09 17.23 31.9-.05-.2-.09-.4-.13-.601-.4-1.93-.55-3.93-.91-5.87-.84-4.479-1.44-8.979-1.75-13.529-.21-3.19-.33-6.431-.08-9.61.13-1.57.49-3.09 1.28-4.46.97-1.68 4.46-3.39 6.02-1.5-.03 2.61.13 4.75.95 7.26.66 2.01 1.02 4.12 1.31 6.24h-.01c.447 3.116.183 2.982-1.01 2.63-1.35-.92-3.22-3.53-4.549-5.82.02-.06-.02-.13-.08-.14-.42-.72-.8-1.42-1.15-2.06.03-.011.06-.011.09-.011.15-.02.09-.239-.06-.22-.05.01-.09 0-.14.01-.6-1.109-1.04-2.01-1.25-2.399-.07-.13-.27-.011-.2.12.19.359.61 1.21 1.16 2.279-.63-.05-1.15-.41-1.42-1.02-.06-.141-.26-.021-.2.109.32.74.99 1.131 1.74 1.141.34.649.72 1.359 1.14 2.1-.84.16-1.67-.12-2.24-.79-.1-.109-.26.05-.16.16.63.74 1.58 1.04 2.51.84 1.95 3.4 4.52 7.09 6.23 5.931.23 1.59.46 3.13 1.62 4.319.71.721 2.66 1.21 3.54.561.07-.051.12-.11.18-.16-.74 1.34-1.34 2.72-1.62 4.25-.03.14.19.2.22.06.32-1.76 1.07-3.319 1.97-4.85.05-.08-.01-.15-.08-.16.01-.04.03-.09.04-.13.02.01.03.03.06.04 2.73.51 5-.82 5.38-3.71.25-1.94.03-3.92.04-5.891 2.69-.21 4.16-3.43 6.4-4.579.14-.07.021-.271-.11-.2-2.199 1.13-3.7 4.34-6.28 4.55 0-.39.02-.78.05-1.17.27-3.09.86-6.12.91-9.22.01-.15-.22-.15-.22 0-.07 3.94-.94 7.8-1.07 11.74-.06 1.79.32 3.49-.05 5.261-.52 2.5-2.64 3.439-4.99 3-.02-.011-.05 0-.07.01.1-.4.11-.84.08-1.3-.12-2.73-.85-5.44-1.03-8.181-.17-2.37-.32-4.68-.27-7.06.03-1.66.1-3.55-.7-5.06.04-.02.07-.05.08-.1.09-2.61 2.96-3.99 5.24-3.57 1.59.29 2.41 2.1 3.39 3.19.05.06.18.04.19-.05 0-.01.01-.03.01-.05 1.18.04 2.37-.35 3.54-.09 1.05.22 1.8.93 2.92 1 .15.01.15-.22 0-.23-1.17-.08-2.05-.82-3.17-1.06-1.04-.23-2.17.16-3.25.15.22-1.24.56-2.43.6-3.7.05-1.47-.43-3-.51-4.47-.18-3.02-.62-6.02-.83-9.05-.26-3.86-1.34-12.15 3.65-13.55 3.5-.98 3.979 7.56 4.09 9.45.12 1.84-.03 3.69-.04 5.54-.03 3.64.25 7.28.57 10.9.31 3.47.159 6.93.35 10.41.18 3.21.52 6.39.63 9.6.04 1.311.2 3.28 1.41 4.101 1.89 1.289 3.53-.25 5.28-1.11 3.229-1.58 6.239-4 10.02-3.4 3.19.5 6.46 2.63 7.97 5.5 1.9 3.63-6.029 3.061-7.76 3.03-1.18-.02-2.399-.11-3.56.07-1.59.239-2.891 1.649-4.08 2.63a72.093 72.093 0 0 1-8.42 5.97c-2.851 1.73-5.2 4.14-8.01 5.91-.74.47-1.41.86-1.94 1.34-.01-.01-.02-.02-.04-.01-2.85.51-5.56-.891-6.41-3.73-.04-.14-.26-.08-.22.061.86 2.87 3.54 4.319 6.41 3.93-.5.54-.85 1.2-.94 2.2-.08.83-.01 1.63-.04 2.43.89.07 1.79.101 2.7.101 21.07 0 38.15-17.08 38.15-38.15C88.15 28.93 71.07 11.85 50 11.85zm-9.27 42.54c.2 2.271.28 4.53.56 6.79.18 1.46.61 2.891.68 4.36.02.56-.09.99-.31 1.3-.738 1.473-2.816.566-3.46.2-.98-.58-1.33-1.86-1.56-2.88-.13-.53-.22-1.07-.3-1.61.03-.03-.21-1.479-.29-2.1.04-.05.03-.101-.01-.141-.06-.479-.13-.96-.2-1.439-.31-2.05-.74-4.05-1.38-6.021-.72-2.17-.75-4.26-.73-6.52.44-.38.66-.89.93-1.4 1.18-2.27 3.57-1.01 5.24-.21 0 .02-.01.04 0 .06 1.54 2.681.55 6.631.83 9.611z"></path></g><!----></svg>